<svg width="40" height="40" viewBox="0 0 40 40" fill="none" xmlns="http://www.w3.org/2000/svg">
<path fill-rule="evenodd" clip-rule="evenodd" d="M20.9347 7.18756C20.5015 6.93748 19.9679 6.93748 19.5347 7.18756L9.7 12.8656C9.26684 13.1157 9 13.5779 9 14.0781V25.4342C9 25.9344 9.26684 26.3965 9.7 26.6466L16.9801 30.8498V28.7713L10.8 25.2032V14.309L20.2347 8.86188L29.6694 14.309V23.0107H31.4694V14.0781C31.4694 13.5779 31.2026 13.1157 30.7694 12.8656L20.9347 7.18756Z" fill="#7E73FE"/>
<path fill-rule="evenodd" clip-rule="evenodd" d="M10.0332 15.1184L19.334 20.2855V28.4349H21.134V20.2855L30.4349 15.1184L29.5607 13.5449L20.234 18.7264L10.9074 13.5449L10.0332 15.1184Z" fill="#7E73FE"/>
<path fill-rule="evenodd" clip-rule="evenodd" d="M28.4885 25.3492L20.3612 30.289C20.3443 30.2993 20.3309 30.3143 20.3225 30.3322L19.4236 32.2583C19.3934 32.323 19.4387 32.3975 19.51 32.4005L21.6337 32.4895C21.6535 32.4903 21.673 32.4853 21.6899 32.475L29.8438 27.519L28.4885 25.3492ZM30.8293 26.9199L31.501 26.5117C32.1046 26.1448 32.2966 25.358 31.9297 24.7544C31.5628 24.1507 30.776 23.9588 30.1723 24.3257L29.474 24.7501L30.8293 26.9199Z" fill="#7E73FE"/>
</svg>
