<svg width="40" height="40" viewBox="0 0 40 40" fill="none" xmlns="http://www.w3.org/2000/svg">
<g id="icon/DXstatus 40">
<path id="Subtract" fill-rule="evenodd" clip-rule="evenodd" d="M30.2 20C30.2 25.6333 25.6333 30.2 20 30.2C16.3728 30.2 13.1879 28.3067 11.3794 25.4545H9.30846C11.2947 29.34 15.3367 32 20 32C26.6274 32 32 26.6274 32 20C32 13.3726 26.6274 8 20 8C13.3726 8 8 13.3726 8 20H9.8C9.8 14.3667 14.3667 9.8 20 9.8C25.6333 9.8 30.2 14.3667 30.2 20Z" fill="#7E73FE"/>
<path id="Vector 1054" d="M8 20.5538H14.6406L17 15L20.5 23.5L22 20.4H26" stroke="#7E73FE" stroke-width="1.8" stroke-linecap="round" stroke-linejoin="round"/>
</g>
</svg>
