<svg width="40" height="40" viewBox="0 0 40 40" fill="none" xmlns="http://www.w3.org/2000/svg">
<g id="icon/DX&#236;&#166;&#144;&#234;&#178;&#168;&#236;&#176;&#190;&#234;&#184;&#176;">
<path id="Star 2" d="M19.4294 9.75598C19.609 9.20323 20.391 9.20323 20.5706 9.75598L22.5597 15.8769C22.64 16.1241 22.8704 16.2915 23.1303 16.2915L29.5663 16.2917C30.1475 16.2917 30.3892 17.0355 29.919 17.3771L24.7123 21.1603C24.502 21.3131 24.414 21.5839 24.4943 21.8311L26.4829 27.9522C26.6625 28.5049 26.0299 28.9646 25.5596 28.623L20.3527 24.8402C20.1424 24.6874 19.8576 24.6874 19.6473 24.8402L14.4404 28.623C13.9701 28.9646 13.3375 28.5049 13.5171 27.9522L15.5057 21.8311C15.586 21.5839 15.498 21.3131 15.2877 21.1603L10.081 17.3771C9.61083 17.0355 9.85248 16.2917 10.4337 16.2917L16.8697 16.2915C17.1296 16.2915 17.36 16.1241 17.4403 15.8769L19.4294 9.75598Z" stroke="#7E73FE" stroke-width="1.8"/>
</g>
</svg>
