<svg width="40" height="40" viewBox="0 0 40 40" fill="none" xmlns="http://www.w3.org/2000/svg">
<g id="icon/DX&#234;&#177;&#180;&#235;&#172;&#188;">
<path id="Subtract" fillRule="evenodd" clipRule="evenodd" d="M8.92383 11C8.92383 10.4477 9.37154 10 9.92383 10H21.3284C21.8806 10 22.3284 10.4477 22.3284 11V30.501H17.5964V26.2698C17.5964 25.9936 17.3726 25.7698 17.0964 25.7698H14.1539C13.8778 25.7698 13.6539 25.9936 13.6539 26.2698V30.501H8.92383V11ZM10.4992 13.6548C10.4992 13.3786 10.723 13.1548 10.9992 13.1548H12.3647C12.6408 13.1548 12.8647 13.3786 12.8647 13.6548V15.0203C12.8647 15.2964 12.6408 15.5203 12.3647 15.5203H10.9992C10.723 15.5203 10.4992 15.2964 10.4992 15.0203V13.6548ZM10.9992 17.0952C10.723 17.0952 10.4992 17.319 10.4992 17.5952V18.9607C10.4992 19.2368 10.723 19.4607 10.9992 19.4607H12.3647C12.6408 19.4607 12.8647 19.2368 12.8647 18.9607V17.5952C12.8647 17.319 12.6408 17.0952 12.3647 17.0952H10.9992ZM10.4992 21.5396C10.4992 21.2635 10.723 21.0396 10.9992 21.0396H12.3647C12.6408 21.0396 12.8647 21.2635 12.8647 21.5396V22.9052C12.8647 23.1813 12.6408 23.4052 12.3647 23.4052H10.9992C10.723 23.4052 10.4992 23.1813 10.4992 22.9052V21.5396ZM14.9437 13.1548C14.6675 13.1548 14.4437 13.3786 14.4437 13.6548V15.0203C14.4437 15.2964 14.6675 15.5203 14.9437 15.5203H16.3092C16.5853 15.5203 16.8092 15.2964 16.8092 15.0203V13.6548C16.8092 13.3786 16.5853 13.1548 16.3092 13.1548H14.9437ZM14.4437 17.5952C14.4437 17.319 14.6675 17.0952 14.9437 17.0952H16.3092C16.5853 17.0952 16.8092 17.319 16.8092 17.5952V18.9607C16.8092 19.2368 16.5853 19.4607 16.3092 19.4607H14.9437C14.6675 19.4607 14.4437 19.2368 14.4437 18.9607V17.5952ZM14.9437 21.0396C14.6675 21.0396 14.4437 21.2635 14.4437 21.5396V22.9052C14.4437 23.1813 14.6675 23.4052 14.9437 23.4052H16.3092C16.5853 23.4052 16.8092 23.1813 16.8092 22.9052V21.5396C16.8092 21.2635 16.5853 21.0396 16.3092 21.0396H14.9437ZM18.8861 13.1548C18.6099 13.1548 18.3861 13.3786 18.3861 13.6548V15.0203C18.3861 15.2964 18.6099 15.5203 18.8861 15.5203H20.2516C20.5277 15.5203 20.7516 15.2964 20.7516 15.0203V13.6548C20.7516 13.3786 20.5277 13.1548 20.2516 13.1548H18.8861ZM18.3861 17.5952C18.3861 17.319 18.6099 17.0952 18.8861 17.0952H20.2516C20.5277 17.0952 20.7516 17.319 20.7516 17.5952V18.9607C20.7516 19.2368 20.5277 19.4607 20.2516 19.4607H18.8861C18.6099 19.4607 18.3861 19.2368 18.3861 18.9607V17.5952ZM18.8861 21.0396C18.6099 21.0396 18.3861 21.2635 18.3861 21.5396V22.9052C18.3861 23.1813 18.6099 23.4052 18.8861 23.4052H20.2516C20.5277 23.4052 20.7516 23.1813 20.7516 22.9052V21.5396C20.7516 21.2635 20.5277 21.0396 20.2516 21.0396H18.8861Z" fill="#717171"/>
<path id="Subtract_2" fillRule="evenodd" clipRule="evenodd" d="M29.9999 17.0952H22.3264V30.4997H24.6915V27.8451C24.6915 27.569 24.9153 27.3451 25.1915 27.3451H27.3455C27.6216 27.3451 27.8455 27.569 27.8455 27.8451V30.4997H30.9999V18.0952C30.9999 17.5429 30.5522 17.0952 29.9999 17.0952ZM29.4216 19.1706C29.4216 18.8944 29.1977 18.6706 28.9216 18.6706L23.6136 18.6706C23.3374 18.6706 23.1136 18.8944 23.1136 19.1706L23.1136 19.7476C23.1136 20.0237 23.3374 20.2476 23.6136 20.2476H28.9216C29.1977 20.2476 29.4216 20.0237 29.4216 19.7476V19.1706ZM29.4216 22.3253C29.4216 22.0492 29.1977 21.8253 28.9216 21.8253H23.6136C23.3374 21.8253 23.1136 22.0492 23.1136 22.3253L23.1136 22.9023C23.1136 23.1785 23.3374 23.4023 23.6136 23.4023L28.9216 23.4023C29.1977 23.4023 29.4216 23.1785 29.4216 22.9023V22.3253Z" fill="#717171"/>
</g>
</svg>
