<svg width="40" height="40" viewBox="0 0 40 40" fill="none" xmlns="http://www.w3.org/2000/svg">
<path fillRule="evenodd" clipRule="evenodd" d="M17.7313 9C14.3293 9 11.6157 11.7068 11.1286 15.1119C8.70936 15.7911 7 18.1632 7 20.8823C7 20.9607 7.00141 21.0389 7.0042 21.1167C7.00141 21.189 7 21.2615 7 21.3343C7 24.3965 9.48241 26.8789 12.5446 26.8789H17.7083V25.0789H12.5446C10.4765 25.0789 8.8 23.4024 8.8 21.3343C8.8 21.2756 8.80134 21.2173 8.804 21.1594L8.8058 21.1199L8.80415 21.0804C8.80139 21.0148 8.8 20.9488 8.8 20.8823C8.8 18.6924 10.2919 16.9905 12.0802 16.7488L12.8202 16.6488L12.8585 15.9031C13.0083 12.9867 15.1987 10.8 17.7313 10.8C19.2318 10.8 20.5954 11.5543 21.5043 12.7817L21.9923 13.4406L22.6937 13.016C23.1764 12.7238 23.7222 12.5615 24.2998 12.5615C26.0149 12.5615 27.5588 14.0459 27.7254 16.126L27.7766 16.7655L28.3979 16.9257C29.9531 17.3266 31.195 18.8911 31.195 20.8532C31.195 20.9196 31.1935 20.9855 31.1907 21.0509L31.1889 21.0937L31.1911 21.1364C31.1945 21.2019 31.1962 21.2679 31.1962 21.3343C31.1962 23.4024 29.5197 25.0789 27.4516 25.0789H22.2859V26.8789H27.4516C30.5138 26.8789 32.9962 24.3965 32.9962 21.3343C32.9962 21.2512 32.9944 21.1685 32.9907 21.0862C32.9936 21.0089 32.995 20.9312 32.995 20.8532C32.995 18.3772 31.5494 16.2025 29.4404 15.3748C28.9746 12.8074 26.9125 10.7615 24.2998 10.7615C23.653 10.7615 23.0343 10.8898 22.4643 11.1224C21.265 9.82264 19.5954 9 17.7313 9Z" fill="#717171"/>
<path d="M20 29L20 20" stroke="#717171" strokeWidth="1.3" strokeLinecap="round"/>
<path d="M18 21L20 19L22 21" stroke="#717171" strokeWidth="1.3" strokeLinecap="round"/>
</svg>
