<svg width="40" height="40" viewBox="0 0 40 40" fill="none" xmlns="http://www.w3.org/2000/svg">
<g id="icon/DX&#237;&#140;&#140;&#236;&#157;&#188;">
<path id="Vector 947" d="M23.8272 12.4665L22.3971 14.7335C22.2139 15.0239 21.8946 15.2 21.5513 15.2H12C11.4477 15.2 11 15.6477 11 16.2V27C11 27.5523 11.4477 28 12 28H28C28.5523 28 29 27.5523 29 27V13C29 12.4477 28.5523 12 28 12H24.673C24.3297 12 24.0104 12.1761 23.8272 12.4665Z" stroke="#717171" strokeWidth="1.8"/>
<path id="Vector 1109" d="M29 20.5V27.5C29 27.7761 28.7761 28 28.5 28H11.6099C11.3366 28 11.114 27.7806 11.11 27.5073L11.0074 20.5073C11.0033 20.2283 11.2284 20 11.5074 20H28.5C28.7761 20 29 20.2239 29 20.5Z" fill="#717171" stroke="#717171"/>
</g>
</svg>
