<svg width="40" height="40" viewBox="0 0 40 40" fill="none" xmlns="http://www.w3.org/2000/svg">
<path d="M15.0937 10.5109C15.2705 10.1951 15.6042 9.99951 15.9662 9.99951H24.0339C24.3959 9.99951 24.7296 10.1951 24.9064 10.5109L26.8664 14.0109C27.2397 14.6775 26.7579 15.4995 25.9939 15.4995H14.0062C13.2422 15.4995 12.7604 14.6775 13.1337 14.0109L15.0937 10.5109Z" fill="#4D4D4D"/>
<path fill-rule="evenodd" clip-rule="evenodd" d="M10 13.6677C9.44772 13.6677 9 14.1154 9 14.6677V28.5566C9 29.1089 9.44772 29.5566 10 29.5566H30C30.5523 29.5566 31 29.1089 31 28.5566V14.6677C31 14.1154 30.5523 13.6677 30 13.6677H10ZM19.999 25.8904C22.6991 25.8904 24.8879 23.7016 24.8879 21.0015C24.8879 18.3015 22.6991 16.1126 19.999 16.1126C17.299 16.1126 15.1102 18.3015 15.1102 21.0015C15.1102 23.7016 17.299 25.8904 19.999 25.8904Z" fill="#4D4D4D"/>
<circle cx="20" cy="20.9996" r="2.2" fill="#4D4D4D"/>
</svg>
