<svg width="40" height="40" viewBox="0 0 40 40" fill="none" xmlns="http://www.w3.org/2000/svg">
<rect width="40" height="40" rx="3" fill="#EEEEEE"/>
<path fill-rule="evenodd" clip-rule="evenodd" d="M16.864 12.7424C17.274 12.3324 17.274 11.6675 16.864 11.2575C16.4539 10.8474 15.7891 10.8474 15.379 11.2575L10.2575 16.379C9.84744 16.7891 9.84744 17.4539 10.2575 17.864L15.379 22.9855C15.7891 23.3956 16.4539 23.3956 16.864 22.9855C17.274 22.5755 17.274 21.9106 16.864 21.5006L13.4133 18.05H23.5004C25.9581 18.05 27.9504 20.0423 27.9504 22.5C27.9504 24.9576 25.9581 26.9499 23.5004 26.9499H15.306C14.7261 26.9499 14.256 27.4201 14.256 28C14.256 28.5798 14.7261 29.05 15.306 29.05H23.5004C27.1179 29.05 30.0504 26.1174 30.0504 22.5C30.0504 18.8825 27.1179 15.95 23.5004 15.95H13.6564L16.864 12.7424Z" fill="#4D4D4D"/>
</svg>
