<svg width="40" height="40" viewBox="0 0 40 40" fill="none" xmlns="http://www.w3.org/2000/svg">
<rect width="40" height="40" rx="3" fill="#EEEEEE"/>
<path fill-rule="evenodd" clip-rule="evenodd" d="M23.1365 12.7424C22.7265 12.3324 22.7265 11.6675 23.1365 11.2575C23.5466 10.8474 24.2114 10.8474 24.6215 11.2575L29.743 16.379C30.153 16.7891 30.153 17.4539 29.743 17.864L24.6215 22.9855C24.2114 23.3956 23.5466 23.3956 23.1365 22.9855C22.7265 22.5755 22.7265 21.9106 23.1365 21.5006L26.5872 18.05H16.5001C14.0424 18.05 12.0501 20.0423 12.0501 22.5C12.0501 24.9576 14.0424 26.95 16.5001 26.95H24.6945C25.2744 26.95 25.7445 27.4201 25.7445 28C25.7445 28.5798 25.2744 29.0499 24.6945 29.0499H16.5001C12.8826 29.0499 9.95008 26.1174 9.95008 22.5C9.95008 18.8825 12.8826 15.95 16.5001 15.95H26.3441L23.1365 12.7424Z" fill="#4D4D4D"/>
</svg>
