<svg width="40" height="40" viewBox="0 0 40 40" fill="none" xmlns="http://www.w3.org/2000/svg">
<g id="icon/DXhome">
<path id="Vector 878" d="M19.4 9.45L9.4 16.95C9.14819 17.1389 9 17.4352 9 17.75V30C9 30.5523 9.44772 31 10 31H15.5625C16.1148 31 16.5625 30.5523 16.5625 30V25.125C16.5625 24.5727 17.0102 24.125 17.5625 24.125H22.4375C22.9898 24.125 23.4375 24.5727 23.4375 25.125V30C23.4375 30.5523 23.8852 31 24.4375 31H30C30.5523 31 31 30.5523 31 30V17.75C31 17.4352 30.8518 17.1389 30.6 16.95L20.6 9.45C20.2444 9.18333 19.7556 9.18333 19.4 9.45Z" fill="#4D4D4D"/>
</g>
</svg>
