<svg width="40" height="40" viewBox="0 0 40 40" fill="none" xmlns="http://www.w3.org/2000/svg">
<path d="M10.5729 18.3463L17.0221 11.8971C20.3581 8.56111 25.7669 8.56111 29.1029 11.8971C32.4389 15.2331 32.4389 20.6419 29.1029 23.9779L22.6537 30.4271C22.4307 30.65 22.0693 30.65 21.8463 30.4271L18.9967 27.5775C18.7883 27.369 18.7883 27.031 18.9967 26.8225L25.418 20.4013C26.7487 19.0705 26.7487 16.9128 25.418 15.582C24.0872 14.2513 21.9295 14.2513 20.5987 15.582L14.1775 22.0033C13.969 22.2117 13.631 22.2117 13.4225 22.0033L10.5729 19.1537C10.35 18.9307 10.35 18.5693 10.5729 18.3463Z" stroke="#4D4D4D" stroke-width="1.3" stroke-linecap="round"/>
<path d="M16.5625 11.4375L13.627 14.373C13.4533 14.5467 13.4533 14.8283 13.627 15.002L17.7563 19.1313C17.8149 19.1899 17.9101 19.1899 17.9687 19.1313L21.3292 15.7708C22.4061 14.6939 24.1522 14.6939 25.2292 15.7708C26.3061 16.8478 26.3061 18.5939 25.2292 19.6708L21.8687 23.0313C21.8101 23.0899 21.8101 23.1851 21.8687 23.2437L25.998 27.373C26.1717 27.5467 26.4533 27.5467 26.627 27.373L29.5625 24.4375C33.1524 20.8476 33.1524 15.0274 29.5625 11.4375C25.9727 7.84765 20.1523 7.84765 16.5625 11.4375Z" fill="#4D4D4D"/>
</svg>
