<svg width="40" height="40" viewBox="0 0 40 40" fill="none" xmlns="http://www.w3.org/2000/svg">
<path fill-rule="evenodd" clip-rule="evenodd" d="M13.3388 24.4998V24.5972C13.3388 24.8733 13.115 25.0972 12.8388 25.0972H10.5C10.2239 25.0972 10 24.8733 10 24.5972V16.3902C10 16.114 10.2239 15.8902 10.5 15.8902H12.8388C13.1077 15.8902 13.3269 16.1024 13.3383 16.3684L22.8665 9.20261C23.5256 8.70695 24.4676 9.17716 24.4676 10.0018V29.8393C24.4676 30.631 23.5912 31.1088 22.9257 30.6798L13.3388 24.4998Z" fill="#4D4D4D"/>
<path fill-rule="evenodd" clip-rule="evenodd" d="M28.4131 12.4297L28.4131 14.8666C29.8851 16.115 30.8193 17.9781 30.8193 20.0595C30.8193 22.1408 29.8851 24.0039 28.4131 25.2523L28.4131 27.6892C31.047 26.1671 32.8193 23.3203 32.8193 20.0595C32.8193 16.7987 31.047 13.9518 28.4131 12.4297Z" fill="#4D4D4D"/>
</svg>
