<svg width="40" height="40" viewBox="0 0 40 40" fill="none" xmlns="http://www.w3.org/2000/svg">
<g id="icon/DX&#234;&#177;&#176;&#235;&#166;&#172;">
<path id="Union" fill-rule="evenodd" clip-rule="evenodd" d="M10.0507 8.94995C10.6306 8.94995 11.1007 9.42005 11.1007 9.99995V10.6492H29.2449V9.99995C29.2449 9.42005 29.715 8.94995 30.2949 8.94995C30.8748 8.94995 31.3449 9.42005 31.3449 9.99995V13.4C31.3449 13.9799 30.8748 14.45 30.2949 14.45C29.715 14.45 29.2449 13.9799 29.2449 13.4V12.7492H11.1007V13.4C11.1007 13.9799 10.6306 14.45 10.0507 14.45C9.47083 14.45 9.00073 13.9799 9.00073 13.4V9.99995C9.00073 9.42005 9.47083 8.94995 10.0507 8.94995Z" fill="#4D4D4D"/>
<g id="Subtract">
<mask id="path-3-inside-1_2360_71356" fill="white">
<path fill-rule="evenodd" clip-rule="evenodd" d="M25 19H21V22V23H19V22V19H15V22V23H13V22V19H10.5C9.67157 19 9 19.6716 9 20.5V27.5C9 28.3284 9.67157 29 10.5 29H29.5C30.3284 29 31 28.3284 31 27.5V20.5C31 19.6716 30.3284 19 29.5 19H27V22V23H25V22V19Z"/>
</mask>
<path fill-rule="evenodd" clip-rule="evenodd" d="M25 19H21V22V23H19V22V19H15V22V23H13V22V19H10.5C9.67157 19 9 19.6716 9 20.5V27.5C9 28.3284 9.67157 29 10.5 29H29.5C30.3284 29 31 28.3284 31 27.5V20.5C31 19.6716 30.3284 19 29.5 19H27V22V23H25V22V19Z" fill="#4D4D4D"/>
<path d="M25 19H26.5V17.5H25V19ZM21 19V17.5H19.5V19H21ZM21 23V24.5H22.5V23H21ZM19 23H17.5V24.5H19V23ZM19 19H20.5V17.5H19V19ZM15 19V17.5H13.5V19H15ZM15 23V24.5H16.5V23H15ZM13 23H11.5V24.5H13V23ZM13 19H14.5V17.5H13V19ZM27 19V17.5H25.5V19H27ZM27 23V24.5H28.5V23H27ZM25 23H23.5V24.5H25V23ZM25 17.5H21V20.5H25V17.5ZM19.5 19V22H22.5V19H19.5ZM19.5 22V23H22.5V22H19.5ZM21 21.5H19V24.5H21V21.5ZM20.5 23V22H17.5V23H20.5ZM20.5 22V19H17.5V22H20.5ZM19 17.5H15V20.5H19V17.5ZM13.5 19V22H16.5V19H13.5ZM13.5 22V23H16.5V22H13.5ZM15 21.5H13V24.5H15V21.5ZM14.5 23V22H11.5V23H14.5ZM14.5 22V19H11.5V22H14.5ZM13 17.5H10.5V20.5H13V17.5ZM10.5 17.5C8.84315 17.5 7.5 18.8431 7.5 20.5H10.5V20.5V17.5ZM7.5 20.5V27.5H10.5V20.5H7.5ZM7.5 27.5C7.5 29.1569 8.84315 30.5 10.5 30.5V27.5H10.5H7.5ZM10.5 30.5H29.5V27.5H10.5V30.5ZM29.5 30.5C31.1569 30.5 32.5 29.1569 32.5 27.5H29.5V30.5ZM32.5 27.5V20.5H29.5V27.5H32.5ZM32.5 20.5C32.5 18.8431 31.1569 17.5 29.5 17.5V20.5V20.5H32.5ZM29.5 17.5H27V20.5H29.5V17.5ZM25.5 19V22H28.5V19H25.5ZM25.5 22V23H28.5V22H25.5ZM27 21.5H25V24.5H27V21.5ZM26.5 23V22H23.5V23H26.5ZM26.5 22V19H23.5V22H26.5Z" fill="#4D4D4D" mask="url(#path-3-inside-1_2360_71356)"/>
</g>
</g>
</svg>
