<svg width="40" height="40" viewBox="0 0 40 40" fill="none" xmlns="http://www.w3.org/2000/svg">
<g id="icon/DX&#236;&#167;&#128;&#236;&#154;&#176;&#234;&#184;&#176;">
<path id="Union" fill-rule="evenodd" clip-rule="evenodd" d="M24.7877 8.59521C23.6256 7.37582 21.7414 7.37581 20.5793 8.59521L10.4536 19.2199C9.2915 20.4393 9.2915 22.4164 10.4536 23.6358L13.7467 27.0912C13.3152 27.2216 13.0009 27.6223 13.0009 28.0964C13.0009 28.6763 13.471 29.1464 14.0509 29.1464H31.2458C31.8257 29.1464 32.2958 28.6763 32.2958 28.0964C32.2958 27.5165 31.8257 27.0464 31.2458 27.0464H23.0727L30.6182 19.129C31.7803 17.9096 31.7804 15.9326 30.6182 14.7132L24.7877 8.59521ZM20.1751 27.0464L25.8041 21.14L18.6627 13.6467L11.9024 20.7401C11.5404 21.1199 11.5404 21.7357 11.9024 22.1156L16.6017 27.0464H20.1751ZM22.0281 10.1154C22.39 9.7356 22.9769 9.7356 23.3389 10.1154L29.1694 16.2334C29.5314 16.6132 29.5314 17.229 29.1694 17.6088L26.7009 20.1989L19.5596 12.7056L22.0281 10.1154Z" fill="#4D4D4D"/>
<path id="Rectangle 2350" d="M22.9734 8.79416L30.7449 16.5657L26.8598 20.4509L19.0891 12.2029L22.9734 8.79416Z" fill="#4D4D4D"/>
</g>
</svg>
