<svg width="28" height="21" viewBox="0 0 28 21" fill="none" xmlns="http://www.w3.org/2000/svg">
<g id="icon/upload">
<path id="Union" fill-rule="evenodd" clip-rule="evenodd" d="M11.6262 0.433105C8.18921 0.433105 5.30761 2.88195 4.76834 6.12705C2.29457 6.74424 0.442139 8.93629 0.442139 11.5777C0.442139 11.6492 0.443507 11.7205 0.446224 11.7914C0.443508 11.8606 0.442139 11.93 0.442139 11.9998C0.442139 14.8901 2.78518 17.2331 5.67547 17.2331H11.6053V15.4331H5.67547C3.77929 15.4331 2.24214 13.8959 2.24214 11.9998C2.24214 11.9443 2.24345 11.8891 2.24603 11.8344L2.24801 11.7926L2.24609 11.7508C2.24347 11.6935 2.24214 11.6358 2.24214 11.5777C2.24214 9.64643 3.73056 8.02057 5.69565 7.78289L6.44262 7.69254L6.48608 6.94138C6.63676 4.33681 8.86118 2.23311 11.6262 2.23311C13.2525 2.23311 14.6967 2.96292 15.6387 4.09762L16.1098 4.66514L16.7588 4.31464C17.2749 4.03593 17.8672 3.87697 18.4999 3.87697C20.4064 3.87697 21.9618 5.32441 22.1263 7.15561L22.1847 7.80624L22.8214 7.95232C24.5206 8.34214 25.7577 9.82039 25.7577 11.553C25.7577 11.6131 25.7562 11.6728 25.7533 11.732L25.7511 11.7769L25.7534 11.8218C25.7564 11.8806 25.7579 11.94 25.7579 11.9998C25.7579 13.8959 24.2208 15.4331 22.3246 15.4331H16.3948V17.2331H22.3246C25.2149 17.2331 27.5579 14.8901 27.5579 11.9998C27.5579 11.9246 27.5563 11.8498 27.5532 11.7753C27.5562 11.7015 27.5577 11.6274 27.5577 11.553C27.5577 9.15051 25.9897 7.12778 23.8261 6.37162C23.3103 3.91424 21.1172 2.07697 18.4999 2.07697C17.8143 2.07697 17.1569 2.20327 16.5511 2.43414C15.2911 1.19662 13.5474 0.433105 11.6262 0.433105ZM14.75 12.4444L15.1872 12.8703C15.4838 13.1593 15.9587 13.1532 16.2477 12.8565C16.5368 12.5598 16.5306 12.085 16.234 11.7959L14.663 10.2653C14.2941 9.90582 13.706 9.90582 13.3371 10.2653L11.7661 11.7959C11.4694 12.085 11.4633 12.5598 11.7523 12.8565C12.0414 13.1532 12.5162 13.1593 12.8129 12.8703L13.25 12.4444V19.6664C13.25 20.0807 13.5858 20.4164 14 20.4164C14.4142 20.4164 14.75 20.0807 14.75 19.6664V12.4444Z" fill="#3988E5"/>
</g>
</svg>
